<svg fill="none" height="24" viewBox="0 0 24 24" width="24" xmlns="http://www.w3.org/2000/svg"><path d="m21.9756 17.1497c-.0872-.2931-.5044-.4998-.5044-.4998-.0395-.0211-.0747-.04-.1038-.0548-.6954-.3416-1.3119-.7528-1.8309-1.2189-.4172-.3754-.7742-.7887-1.0607-1.2273-.3508-.5357-.5148-.9827-.5854-1.2252-.0394-.1582-.0332-.2215 0-.3037.027-.0696.108-.135.1453-.1666.2346-.1687.6124-.4176.8449-.5694.2013-.1328.3736-.2467.4753-.3184.3259-.232.5501-.4682.6809-.7233.1702-.329.191-.6917.0581-1.04812-.1785-.48081-.6206-.76761-1.1832-.76761-.1245 0-.2532.01476-.3819.04218-.3218.0717-.6269.18768-.8823.2889-.0186.00844-.0394-.00632-.0373-.02741.027-.64319.0581-1.5078-.0125-2.32813-.0622-.7423-.2138-1.36862-.4587-1.91481-.247-.54829-.5688-.95318-.82-1.2463-.2387-.27837-.6601-.68959-1.2953-1.05863-.8926-.51877-1.9097-.78237-3.0224-.78237-1.1105 0-2.12558.2636-3.02025.78237-.67256.39013-1.10226.83087-1.29738 1.05863-.25117.29312-.57292.69801-.81995 1.2463-.24702.54619-.39648 1.1704-.45875 1.91481-.07058.82455-.04152 1.61957-.01245 2.32813 0 .02109-.01869.03585-.03944.02741-.25533-.10122-.56047-.2172-.88222-.2889-.12663-.02742-.25533-.04218-.38195-.04218-.56047 0-1.00262.2868-1.18321.76761-.13285.35642-.1121.71912.05812 1.04812.13285.2551.35496.4913.68087.7233.09963.0717.274.1856.47536.3184.22626.1497.59368.3923.83032.5589.02906.021.1287.097.15984.1771.03321.0843.03944.1476-.00416.3163-.07265.2446-.23664.6875-.58122 1.2126-.28646.4407-.6435.8519-1.06074 1.2273-.51895.4661-1.13547.8773-1.83086 1.2189-.03321.0169-.07266.0359-.11417.0612 0 0-.41516.2151-.49404.4934-.11625.4112.19305.7972.50649 1.0038.5148.3374 1.1417.5188 1.50496.6179.10172.0274.19305.0527.27609.078.05189.0169.18267.0675.23871.1413.07058.0928.07889.2067.10379.3353.03945.2172.12871.485.39233.6706.29062.2025.65803.2172 1.12509.2362.48782.019 1.09395.0422 1.78935.2763.32175.1075.61444.291.95072.5019.70577.4407 1.58385.989 3.08255.989 1.5008 0 2.3851-.5504 3.095-.9933.3363-.2087.6249-.3901.9404-.4955.6954-.2341 1.3015-.2573 1.7893-.2763.4671-.019.8345-.0316 1.1251-.2362.2823-.1982.3633-.4934.4007-.7149.0207-.1096.0332-.2087.0954-.2889.054-.0696.1744-.1181.2305-.137.0851-.0274.1806-.0528.2864-.0823.3633-.0991.82-.2151 1.3742-.5335.6684-.3859.7141-.8583.6435-1.0924z" stroke="#000" stroke-linecap="round" stroke-linejoin="round" stroke-width="2"/></svg>